<?xml version="1.0" encoding="UTF-8"?>
<svg id="Layer_1" data-name="Layer 1" xmlns="http://www.w3.org/2000/svg" viewBox="0 0 35.74 35.74">
  <defs>
    <style>
      .cls-1 {
        fill: #231f20;
        stroke-width: 0px;
      }
    </style>
  </defs>
  <path class="cls-1" d="m4.86,21.33c1.69-3.98,3.58-7.57,5.68-10.8-.87-.22-1.58-.75-1.91-1.53-.63-1.52.44-3.41,2.39-4.22s4.04-.23,4.67,1.29c.18.44.21.91.12,1.38,0,.02,0,.03,0,.05,0,.37-.48,1.28-1.45,2.75-1.7,2.75-2.83,4.79-3.38,6.13,2.2-2.3,4.14-4.11,5.81-5.42,2.54-1.96,4.24-2.95,5.11-2.95.42,0,.79.16,1.1.47.29.29.43.6.43.94,0,.5-.46,1.31-1.38,2.44-1.41,1.78-2.4,3.3-2.95,4.56,6.13-6.16,10.32-9.23,12.57-9.23.19,0,.36.04.53.09C28.97,2.87,23.76,0,17.87,0,8,0,0,8,0,17.87c0,3.45.99,6.66,2.68,9.39.41-1.53,1.14-3.5,2.18-5.93Z"/>
  <path class="cls-1" d="m33.42,9.08c-.12.69-.65,1.53-1.64,2.54-4.95,5.11-7.43,9.3-7.43,12.57,0,.59.05,1.1.15,1.54.05-.04.09-.08.14-.12,1.71-1.24,3.87-1.17,4.84.16.97,1.33.37,3.41-1.33,4.66-1.29.94-2.85,1.13-3.95.59-.73-.13-1.42-.64-2.05-1.59-.89-1.31-1.34-2.85-1.34-4.64,0-2.38.68-4.79,2.04-7.23.47-.86,1.26-2.02,2.36-3.46-2.23,1.68-4.49,3.98-6.8,6.92-1.57,1.99-2.99,4.22-4.24,6.68-.6,1.18-1.31,1.77-2.12,1.77-.89,0-1.34-.5-1.34-1.49,0-1.07.73-3.29,2.2-6.64.84-1.91,1.87-3.93,3.1-6.05-4.48,3.46-7.85,8.15-10.1,14.07-.2.48-.43.87-.68,1.17,3.23,3.23,7.69,5.22,12.62,5.22,9.87,0,17.87-8,17.87-17.87,0-3.2-.85-6.19-2.32-8.79Z"/>
</svg>