<svg width="167" height="37" viewBox="0 0 167 37" fill="none" xmlns="http://www.w3.org/2000/svg">
<path d="M2.904 36C2.168 36 1.528 35.728 0.984 35.184C0.44 34.64 0.168 34 0.168 33.264V13.776C0.168 13.04 0.44 12.4 0.984 11.856C1.528 11.312 2.168 11.04 2.904 11.04H4.68C5.448 11.04 6.088 11.312 6.6 11.856C7.144 12.368 7.448 13.008 7.512 13.776L7.56 14.208C7.56 14.24 7.576 14.256 7.608 14.256C7.672 14.256 7.704 14.24 7.704 14.208C9.592 11.776 11.752 10.56 14.184 10.56C15.656 10.56 16.824 10.832 17.688 11.376C18.552 11.888 19.352 12.816 20.088 14.16C20.088 14.224 20.12 14.256 20.184 14.256L20.28 14.16C22.488 11.76 24.792 10.56 27.192 10.56C29.912 10.56 31.88 11.296 33.096 12.768C34.312 14.208 34.92 16.672 34.92 20.16V33.264C34.92 34 34.648 34.64 34.104 35.184C33.56 35.728 32.92 36 32.184 36H30.072C29.336 36 28.696 35.728 28.152 35.184C27.608 34.64 27.336 34 27.336 33.264V20.64C27.336 18.912 27.144 17.776 26.76 17.232C26.376 16.656 25.656 16.368 24.6 16.368C23.864 16.368 23.144 16.672 22.44 17.28C21.768 17.888 21.432 18.48 21.432 19.056V33.264C21.432 34 21.16 34.64 20.616 35.184C20.072 35.728 19.432 36 18.696 36H16.584C15.848 36 15.208 35.728 14.664 35.184C14.12 34.64 13.848 34 13.848 33.264V20.64C13.848 18.912 13.656 17.776 13.272 17.232C12.92 16.656 12.216 16.368 11.16 16.368C10.424 16.368 9.704 16.672 9 17.28C8.296 17.888 7.944 18.48 7.944 19.056V33.264C7.944 34 7.672 34.64 7.128 35.184C6.584 35.728 5.944 36 5.208 36H2.904ZM50.5961 24.576C46.6921 24.576 44.7401 25.776 44.7401 28.176C44.7401 29.04 44.9961 29.728 45.5081 30.24C46.0201 30.72 46.7081 30.96 47.5721 30.96C49.1081 30.96 50.3561 30.48 51.3161 29.52C52.2761 28.528 52.7561 27.216 52.7561 25.584V25.008C52.7561 24.72 52.6121 24.576 52.3241 24.576H50.5961ZM45.2201 36.48C43.0121 36.48 41.1881 35.776 39.7481 34.368C38.3401 32.928 37.6361 31.072 37.6361 28.8C37.6361 22.976 41.9561 20.064 50.5961 20.064H52.3241C52.6121 20.064 52.7561 19.936 52.7561 19.68V19.44C52.7561 18.224 52.4361 17.344 51.7961 16.8C51.1881 16.256 50.1481 15.984 48.6761 15.984C46.7241 15.984 44.3881 16.288 41.6681 16.896C40.9961 17.024 40.3881 16.88 39.8441 16.464C39.3321 16.048 39.0761 15.504 39.0761 14.832V14.736C39.0761 13.936 39.3161 13.216 39.7961 12.576C40.3081 11.904 40.9481 11.504 41.7161 11.376C44.5321 10.832 46.9641 10.56 49.0121 10.56C53.2041 10.56 56.1641 11.312 57.8921 12.816C59.6521 14.32 60.5321 16.816 60.5321 20.304V33.264C60.5321 34 60.2601 34.64 59.7161 35.184C59.1721 35.728 58.5321 36 57.7961 36H56.0201C55.2521 36 54.5961 35.744 54.0521 35.232C53.5081 34.688 53.2201 34.032 53.1881 33.264V32.736C53.1881 32.704 53.1721 32.688 53.1401 32.688C53.0761 32.688 53.0441 32.704 53.0441 32.736C51.0281 35.232 48.4201 36.48 45.2201 36.48ZM68.409 36C67.673 36 67.033 35.728 66.489 35.184C65.945 34.64 65.673 34 65.673 33.264V2.736C65.673 2 65.945 1.36 66.489 0.815998C67.033 0.271997 67.673 -2.86102e-06 68.409 -2.86102e-06H71.097C71.833 -2.86102e-06 72.473 0.271997 73.017 0.815998C73.561 1.36 73.833 2 73.833 2.736V33.264C73.833 34 73.561 34.64 73.017 35.184C72.473 35.728 71.833 36 71.097 36H68.409ZM86.964 36.48C84.148 36.48 82.1 35.696 80.82 34.128C79.572 32.56 78.948 29.872 78.948 26.064V13.776C78.948 13.04 79.22 12.4 79.764 11.856C80.308 11.312 80.948 11.04 81.684 11.04H83.796C84.532 11.04 85.172 11.312 85.716 11.856C86.26 12.4 86.532 13.04 86.532 13.776V25.536C86.532 27.392 86.772 28.672 87.252 29.376C87.764 30.048 88.628 30.384 89.844 30.384C90.964 30.384 91.988 29.936 92.916 29.04C93.844 28.112 94.308 27.12 94.308 26.064V13.776C94.308 13.04 94.58 12.4 95.124 11.856C95.668 11.312 96.308 11.04 97.044 11.04H99.348C100.084 11.04 100.724 11.312 101.268 11.856C101.812 12.4 102.084 13.04 102.084 13.776V33.264C102.084 34 101.812 34.64 101.268 35.184C100.724 35.728 100.084 36 99.348 36H97.38C96.612 36 95.956 35.744 95.412 35.232C94.9 34.688 94.628 34.032 94.596 33.264V32.88C94.596 32.848 94.58 32.832 94.548 32.832L94.452 32.928C92.372 35.296 89.876 36.48 86.964 36.48ZM109.014 36C108.278 36 107.638 35.728 107.094 35.184C106.55 34.64 106.278 34 106.278 33.264V13.776C106.278 13.04 106.55 12.4 107.094 11.856C107.638 11.312 108.278 11.04 109.014 11.04H110.79C111.558 11.04 112.198 11.312 112.71 11.856C113.254 12.368 113.558 13.008 113.622 13.776L113.67 14.208C113.67 14.24 113.686 14.256 113.718 14.256C113.782 14.256 113.814 14.24 113.814 14.208C115.702 11.776 117.862 10.56 120.294 10.56C121.766 10.56 122.934 10.832 123.798 11.376C124.662 11.888 125.462 12.816 126.198 14.16C126.198 14.224 126.23 14.256 126.294 14.256L126.39 14.16C128.598 11.76 130.902 10.56 133.302 10.56C136.022 10.56 137.99 11.296 139.206 12.768C140.422 14.208 141.03 16.672 141.03 20.16V33.264C141.03 34 140.758 34.64 140.214 35.184C139.67 35.728 139.03 36 138.294 36H136.182C135.446 36 134.806 35.728 134.262 35.184C133.718 34.64 133.446 34 133.446 33.264V20.64C133.446 18.912 133.254 17.776 132.87 17.232C132.486 16.656 131.766 16.368 130.71 16.368C129.974 16.368 129.254 16.672 128.55 17.28C127.878 17.888 127.542 18.48 127.542 19.056V33.264C127.542 34 127.27 34.64 126.726 35.184C126.182 35.728 125.542 36 124.806 36H122.694C121.958 36 121.318 35.728 120.774 35.184C120.23 34.64 119.958 34 119.958 33.264V20.64C119.958 18.912 119.766 17.776 119.382 17.232C119.03 16.656 118.326 16.368 117.27 16.368C116.534 16.368 115.814 16.672 115.11 17.28C114.406 17.888 114.054 18.48 114.054 19.056V33.264C114.054 34 113.782 34.64 113.238 35.184C112.694 35.728 112.054 36 111.318 36H109.014ZM156.706 24.576C152.802 24.576 150.85 25.776 150.85 28.176C150.85 29.04 151.106 29.728 151.618 30.24C152.13 30.72 152.818 30.96 153.682 30.96C155.218 30.96 156.466 30.48 157.426 29.52C158.386 28.528 158.866 27.216 158.866 25.584V25.008C158.866 24.72 158.722 24.576 158.434 24.576H156.706ZM151.33 36.48C149.122 36.48 147.298 35.776 145.858 34.368C144.45 32.928 143.746 31.072 143.746 28.8C143.746 22.976 148.066 20.064 156.706 20.064H158.434C158.722 20.064 158.866 19.936 158.866 19.68V19.44C158.866 18.224 158.546 17.344 157.906 16.8C157.298 16.256 156.258 15.984 154.786 15.984C152.834 15.984 150.498 16.288 147.778 16.896C147.106 17.024 146.498 16.88 145.954 16.464C145.442 16.048 145.186 15.504 145.186 14.832V14.736C145.186 13.936 145.426 13.216 145.906 12.576C146.418 11.904 147.058 11.504 147.826 11.376C150.642 10.832 153.074 10.56 155.122 10.56C159.314 10.56 162.274 11.312 164.002 12.816C165.762 14.32 166.642 16.816 166.642 20.304V33.264C166.642 34 166.37 34.64 165.826 35.184C165.282 35.728 164.642 36 163.906 36H162.13C161.362 36 160.706 35.744 160.162 35.232C159.618 34.688 159.33 34.032 159.298 33.264V32.736C159.298 32.704 159.282 32.688 159.25 32.688C159.186 32.688 159.154 32.704 159.154 32.736C157.138 35.232 154.53 36.48 151.33 36.48Z" fill="#F1147E"/>
</svg>
